<?xml version="1.0" standalone="no"?>
<!DOCTYPE svg PUBLIC "-//W3C//DTD SVG 20010904//EN"
 "http://www.w3.org/TR/2001/REC-SVG-20010904/DTD/svg10.dtd">
<svg version="1.0" xmlns="http://www.w3.org/2000/svg"
 width="700.000000pt" height="700.000000pt" viewBox="0 0 700.000000 700.000000"
 preserveAspectRatio="xMidYMid meet">
<metadata>
Created by potrace 1.11, written by Peter Selinger 2001-2013
</metadata>
<g transform="translate(0.000000,700.000000) scale(0.100000,-0.100000)"
fill="#000000" stroke="none">
<path d="M3407 6604 c-1 -1 -54 -5 -117 -8 -219 -12 -459 -56 -692 -127 -1046
-316 -1848 -1162 -2112 -2229 -13 -52 -27 -113 -31 -135 -10 -58 -14 -82 -20
-112 -3 -16 -7 -48 -11 -73 -3 -25 -7 -56 -10 -70 -7 -47 -18 -255 -17 -360 0
-176 14 -346 43 -510 5 -30 12 -70 15 -88 3 -18 21 -95 41 -170 284 -1110
1177 -1983 2294 -2244 127 -30 119 -28 280 -52 137 -20 266 -29 420 -29 117 0
309 9 362 18 12 2 57 9 98 15 41 6 91 13 110 16 19 3 89 18 155 34 1059 251
1913 1044 2246 2085 7 22 14 45 15 50 1 6 14 52 28 104 62 231 99 521 99 786
0 106 -12 305 -23 380 -5 33 -12 80 -15 105 -4 25 -11 68 -16 95 -6 28 -13 61
-15 75 -59 299 -226 709 -405 992 -58 91 -198 282 -261 356 -97 113 -302 314
-403 395 -250 200 -483 340 -765 460 -129 54 -356 129 -475 156 -101 23 -233
48 -305 56 -30 4 -63 9 -72 11 -50 9 -433 25 -441 18z m383 -97 c14 -2 54 -7
90 -11 66 -7 95 -12 140 -21 14 -3 41 -8 60 -11 19 -3 88 -19 154 -35 1075
-267 1931 -1123 2196 -2199 15 -63 31 -131 34 -150 3 -19 8 -46 11 -60 3 -14
8 -43 11 -65 3 -22 7 -49 9 -60 26 -127 27 -597 1 -780 -10 -65 -20 -130 -21
-135 -1 -3 -5 -25 -9 -50 -23 -138 -86 -355 -157 -540 -50 -132 -196 -413
-282 -543 -384 -579 -922 -993 -1584 -1216 -96 -32 -339 -95 -408 -104 -22 -3
-74 -11 -115 -17 -41 -6 -106 -14 -145 -18 -94 -9 -462 -9 -555 1 -41 5 -93
10 -115 12 -52 6 -137 21 -255 46 -735 157 -1411 614 -1842 1244 -209 307
-352 628 -442 995 -32 127 -37 156 -52 263 -3 23 -7 53 -10 67 -26 163 -26
567 1 765 2 17 6 46 9 65 73 526 317 1067 674 1490 300 356 695 653 1097 825
22 9 49 21 60 26 187 81 525 175 705 195 25 3 54 7 65 9 11 2 56 7 100 11 44
4 82 8 84 10 5 4 461 -4 491 -9z"/>
<path d="M3521 6406 c-17 -21 -10 -87 12 -100 25 -16 50 4 54 42 7 58 -35 95
-66 58z m41 -18 c6 -17 -3 -68 -12 -68 -13 0 -20 30 -14 56 7 25 20 32 26 12z"/>
<path d="M3667 6401 c-26 -17 -28 -35 -2 -25 9 4 11 -5 8 -34 -3 -29 -1 -41
10 -45 12 -5 16 6 19 55 1 33 0 62 -3 63 -3 2 -17 -4 -32 -14z"/>
<path d="M3227 6392 c-19 -20 -13 -34 9 -25 11 4 14 -5 14 -36 0 -28 4 -41 14
-41 8 0 12 9 11 23 -1 12 -3 39 -4 60 -1 41 -18 48 -44 19z"/>
<path d="M3798 6403 c-19 -5 -37 -57 -30 -86 6 -22 36 -39 55 -31 16 6 27 34
27 70 0 26 -29 52 -52 47z m27 -44 c1 -7 -2 -25 -7 -38 -13 -35 -32 -12 -23
29 7 31 26 37 30 9z"/>
<path d="M3115 6392 c-6 -4 -17 -15 -24 -25 -14 -17 -13 -18 5 -15 15 2 20 -4
24 -35 8 -57 25 -44 22 16 -3 55 -11 71 -27 59z"/>
<path d="M3916 6374 c-9 -8 -17 -22 -17 -30 -1 -8 -2 -20 -3 -26 -7 -44 53
-67 74 -29 32 61 -11 129 -54 85z m35 -52 c-10 -37 -31 -40 -31 -5 0 33 20 60
31 42 4 -6 4 -23 0 -37z"/>
<path d="M2972 6369 c-47 -18 -11 -125 38 -112 11 3 21 13 22 22 0 9 2 23 3
31 2 21 -15 58 -29 63 -6 2 -21 1 -34 -4z m32 -35 c9 -24 7 -54 -3 -54 -12 0
-16 8 -25 43 -5 20 -3 27 8 27 8 0 17 -7 20 -16z"/>
<path d="M4040 6343 c-33 -42 -24 -90 18 -98 24 -4 41 13 48 50 11 62 -31 93
-66 48z m43 -10 c7 -13 -13 -73 -23 -73 -11 0 -14 63 -3 73 9 9 21 9 26 0z"/>
<path d="M2831 6336 c-13 -15 -6 -73 11 -93 29 -35 74 -1 64 49 -11 55 -48 77
-75 44z m47 -38 c10 -37 -3 -63 -18 -38 -13 20 -13 70 0 70 5 0 13 -15 18 -32z"/>
<path d="M4174 6315 c-18 -13 -18 -14 -1 -15 16 0 17 -6 11 -45 -11 -74 16
-47 35 34 8 36 7 41 -8 41 -10 0 -26 -7 -37 -15z"/>
<path d="M2717 6302 c-21 -23 -22 -36 -2 -28 10 4 17 -6 25 -34 10 -39 30 -55
30 -25 0 24 -24 105 -31 105 -3 0 -13 -8 -22 -18z"/>
<path d="M4292 6279 c-19 -30 -23 -59 -11 -80 25 -47 83 1 77 63 -2 27 -8 34
-28 36 -17 2 -29 -4 -38 -19z m48 -8 c0 -19 -23 -71 -31 -71 -12 0 -11 37 1
61 11 19 30 26 30 10z"/>
<path d="M2581 6254 c-10 -23 -10 -26 4 -20 12 4 21 -4 32 -34 24 -60 39 -35
18 29 -18 57 -36 64 -54 25z"/>
<path d="M4416 6238 c-26 -42 -24 -84 5 -93 27 -9 55 17 63 57 11 55 -39 81
-68 36z m44 -22 c0 -30 -33 -69 -38 -44 -4 20 15 68 28 68 5 0 10 -11 10 -24z"/>
<path d="M2465 6220 c-9 -10 -14 -24 -10 -30 6 -9 10 -9 16 1 8 13 11 8 35
-60 3 -9 8 -11 14 -5 10 10 -14 99 -30 109 -4 2 -15 -4 -25 -15z"/>
<path d="M3200 6224 c-63 -7 -162 -23 -220 -35 -58 -11 -114 -23 -126 -25 -44
-8 -233 -67 -324 -101 -247 -92 -563 -273 -749 -427 -432 -360 -727 -791 -890
-1300 -23 -71 -43 -138 -46 -150 -33 -151 -55 -266 -60 -318 -4 -35 -9 -72
-12 -83 -9 -39 -11 -461 -2 -535 4 -41 11 -97 14 -125 3 -27 8 -57 10 -65 3
-8 7 -32 9 -54 3 -21 8 -46 10 -55 3 -9 8 -30 11 -48 3 -17 21 -85 40 -151 97
-341 244 -633 459 -917 84 -111 103 -132 251 -280 360 -360 803 -605 1308
-725 49 -12 101 -23 115 -25 15 -2 79 -12 142 -21 187 -29 563 -26 765 6 113
18 130 21 250 50 480 114 915 360 1275 720 261 260 435 513 582 844 34 76 99
251 113 306 40 148 47 178 60 248 3 15 7 36 10 48 3 12 7 39 10 60 4 21 11 68
17 104 13 79 19 502 8 585 -5 33 -11 83 -15 110 -42 337 -175 726 -346 1012
-59 100 -169 263 -208 309 -14 17 -42 51 -60 75 -19 24 -98 107 -175 184 -324
323 -698 546 -1138 679 -142 43 -265 69 -453 96 -119 18 -499 20 -635 4z m495
-48 c50 -4 101 -8 115 -10 486 -61 908 -230 1300 -520 244 -181 494 -451 665
-721 181 -286 342 -724 380 -1034 4 -30 8 -63 11 -74 8 -43 17 -229 17 -340
-4 -690 -282 -1362 -762 -1846 -69 -70 -144 -143 -166 -163 -73 -63 -238 -185
-330 -243 -85 -53 -312 -171 -400 -207 -213 -87 -500 -161 -710 -183 -27 -3
-70 -8 -95 -11 -60 -7 -360 -7 -435 1 -117 11 -151 16 -240 31 -408 69 -821
247 -1152 496 -131 98 -162 125 -308 273 -210 211 -358 420 -495 700 -150 304
-237 622 -266 970 -18 212 -3 482 38 690 10 55 22 113 25 130 3 16 22 86 43
155 130 431 354 805 669 1121 161 160 266 246 447 365 86 56 336 188 439 231
128 53 398 131 520 149 17 3 36 7 43 10 8 2 37 7 65 10 29 2 62 7 73 9 12 3
70 8 130 11 60 4 110 7 111 8 4 4 177 -2 268 -8z"/>
<path d="M3289 5246 c-2 -2 -20 -6 -39 -9 -19 -3 -66 -10 -105 -17 -38 -7 -77
-13 -85 -15 -23 -3 -114 -19 -122 -21 -5 -1 -15 -2 -23 -3 -8 0 -15 -5 -15
-10 0 -5 41 -94 91 -197 50 -104 110 -229 134 -279 70 -147 157 -329 245 -510
45 -93 113 -236 152 -317 39 -82 74 -148 78 -148 7 0 734 1449 729 1454 -2 3
-86 18 -186 35 -100 17 -188 34 -196 37 -10 4 -44 -71 -132 -288 -65 -161
-122 -297 -127 -302 -4 -6 -8 -16 -8 -23 0 -7 -11 -36 -24 -65 -13 -29 -27
-64 -31 -77 l-8 -25 -12 25 c-7 13 -77 186 -155 384 -139 351 -152 380 -161
371z"/>
<path d="M4868 5070 c-277 -55 -465 -212 -549 -461 -29 -84 -32 -106 -32 -209
1 -169 38 -287 130 -412 160 -218 518 -326 810 -243 57 17 59 19 68 115 4 36
8 72 10 80 1 8 6 40 9 71 4 31 9 66 11 78 4 21 2 20 -48 -7 -29 -16 -68 -34
-87 -41 -187 -67 -419 12 -501 171 -63 122 -59 284 8 391 70 111 180 171 331
181 74 5 142 -11 224 -53 63 -32 72 -36 65 -23 -3 4 -8 32 -11 63 -4 31 -8 65
-10 75 -14 77 -23 136 -25 164 -2 29 -17 39 -81 56 -86 22 -219 24 -322 4z"/>
<path d="M1742 5051 c-4 -4 -8 -296 -8 -651 1 -525 3 -646 14 -650 7 -3 144
-5 305 -4 275 2 298 4 388 27 240 62 415 210 493 418 29 79 37 124 36 214 -1
89 -4 112 -26 177 -32 98 -77 171 -154 249 -108 108 -226 171 -395 210 -51 11
-638 20 -653 10z m609 -300 c177 -67 285 -234 258 -401 -17 -110 -90 -211
-193 -269 -71 -39 -132 -53 -234 -55 l-87 -1 -2 365 c-2 201 -1 371 2 378 7
20 188 9 256 -17z"/>
<path d="M3404 3556 c-56 -26 -108 -92 -121 -155 -5 -20 -8 -156 -8 -302 l0
-265 30 -59 c36 -70 88 -111 158 -124 l47 -8 0 62 c0 57 -2 63 -25 73 -50 23
-54 53 -52 349 l2 271 24 26 c14 14 30 26 38 26 9 0 13 18 13 65 0 64 0 65
-27 65 -16 0 -51 -11 -79 -24z"/>
<path d="M3539 3563 c0 -10 -2 -35 -3 -56 -2 -42 1 -50 30 -65 27 -14 44 -74
44 -158 l0 -69 62 2 c35 1 71 2 81 2 16 1 18 9 16 69 -5 158 -55 246 -158 281
-48 16 -71 14 -72 -6z"/>
<path d="M4966 3565 c-87 -31 -145 -125 -139 -228 4 -75 29 -122 105 -197 l62
-61 54 54 53 54 -50 51 c-59 61 -79 114 -61 168 7 22 21 39 36 44 22 9 24 15
24 70 0 56 -2 60 -22 60 -13 -1 -40 -7 -62 -15z"/>
<path d="M5072 3521 c0 -50 4 -63 24 -80 20 -17 37 -65 38 -111 1 -8 6 -14 11
-14 6 1 33 5 60 9 95 12 96 13 89 54 -10 53 -29 95 -60 130 -32 36 -99 71
-136 71 -25 0 -26 -2 -26 -59z"/>
<path d="M1734 3561 c-2 -2 -4 -206 -4 -453 l0 -448 80 0 c76 0 80 1 81 23 0
12 1 215 1 452 l1 430 -77 0 c-42 0 -79 -1 -82 -4z"/>
<path d="M2057 3555 c-2 -5 -3 -92 -2 -192 0 -119 -3 -183 -10 -184 -5 -1 -37
-2 -70 -3 l-60 -1 1 -50 1 -50 69 -5 69 -5 0 -203 0 -203 80 3 80 3 0 450 0
450 -77 0 c-44 0 -79 -4 -81 -10z"/>
<path d="M2714 3559 c-2 -4 3 -44 12 -90 8 -46 21 -122 30 -169 8 -47 17 -96
19 -110 3 -14 7 -38 10 -55 5 -29 20 -112 30 -165 2 -14 14 -81 25 -150 30
-176 19 -160 106 -160 41 0 74 4 74 8 0 5 -14 74 -31 153 -67 318 -90 425 -95
454 -2 17 -7 38 -10 47 -3 9 -7 27 -9 40 -8 40 -26 121 -36 163 l-10 41 -56 0
c-30 -1 -57 -4 -59 -7z"/>
<path d="M4069 3546 c0 -26 0 -821 0 -858 l1 -28 80 0 80 0 0 450 c0 248 -3
450 -7 451 -5 1 -41 2 -80 3 -68 2 -73 1 -74 -18z"/>
<path d="M4321 3385 c-93 -239 -93 -225 15 -503 47 -119 86 -217 88 -219 2 -2
40 -3 84 -1 l81 3 -101 244 c-115 277 -112 237 -35 401 85 184 107 233 107
244 0 7 -29 11 -84 11 l-84 1 -71 -181z"/>
<path d="M2676 3533 c-3 -10 -10 -38 -15 -63 -18 -90 -70 -337 -85 -400 -8
-36 -18 -80 -21 -98 -3 -18 -12 -65 -21 -105 -8 -39 -18 -83 -20 -97 -3 -14
-9 -41 -14 -60 -6 -19 -10 -38 -10 -42 0 -5 36 -8 79 -8 l79 0 12 53 c6 28 14
71 17 95 3 23 11 46 17 49 6 4 33 7 61 8 47 0 50 1 47 25 -8 66 -7 65 -52 67
-24 2 -45 4 -47 6 -1 2 1 28 7 58 5 30 12 68 15 84 17 96 16 136 -5 250 -12
66 -25 136 -27 155 -6 42 -9 47 -17 23z"/>
<path d="M5072 3121 c-28 -28 -52 -55 -52 -59 0 -4 16 -24 36 -43 48 -46 79
-105 83 -157 3 -47 -19 -92 -44 -92 -12 0 -15 -14 -15 -65 l0 -64 33 6 c62 11
127 54 155 102 22 38 27 58 27 116 0 89 -31 156 -113 245 l-57 63 -53 -52z"/>
<path d="M3610 2947 c0 -91 -13 -136 -46 -163 -21 -17 -26 -30 -28 -77 l-3
-57 31 0 c43 0 112 37 141 74 37 48 54 109 61 207 l6 89 -81 0 -81 0 0 -73z"/>
<path d="M4887 2925 c-32 -7 -60 -14 -62 -17 -10 -9 27 -124 51 -160 30 -46
91 -88 142 -98 l37 -6 0 59 c0 51 -4 64 -27 89 -23 25 -40 76 -42 128 -1 20
-28 21 -99 5z"/>
<path d="M3462 2440 c-124 -90 -266 -345 -237 -426 17 -45 47 -48 105 -9 56
38 57 36 25 -41 -14 -33 -3 -73 21 -81 6 -2 33 44 59 103 54 122 83 174 96
174 5 0 9 5 9 10 0 18 -61 38 -89 30 -14 -4 -31 -5 -38 -3 -21 8 -23 -16 -2
-31 l21 -15 -21 -30 c-24 -33 -100 -101 -113 -101 -16 0 1 50 48 146 36 74 64
114 124 177 43 45 80 80 83 77 3 -3 -8 -37 -24 -75 -16 -38 -29 -71 -29 -73 0
-13 82 59 96 83 22 41 16 65 -25 92 -44 30 -60 29 -109 -7z"/>
<path d="M2442 2413 c-36 -37 -100 -110 -176 -201 -58 -70 -41 -34 24 53 34
44 63 90 67 103 6 24 -20 62 -42 62 -27 0 -280 -466 -269 -495 6 -16 32 -27
44 -20 5 3 29 42 55 88 25 45 54 93 64 105 l18 24 37 -20 c29 -16 44 -18 68
-12 84 25 176 144 202 263 8 32 -6 62 -35 77 -17 10 -25 6 -57 -27z m1 -70
c-48 -106 -117 -178 -181 -189 -27 -5 -27 -5 -7 14 11 10 60 62 109 115 48 54
90 97 92 97 2 0 -4 -17 -13 -37z"/>
<path d="M2779 2416 c-24 -18 -81 -73 -126 -121 -46 -47 -83 -83 -83 -78 0 4
27 46 61 92 61 85 67 112 31 126 -20 8 -6 26 -189 -258 -122 -190 -140 -224
-128 -236 22 -22 39 -8 113 91 79 105 112 139 113 117 12 -189 28 -239 79
-239 35 0 35 5 14 80 -8 30 -18 76 -23 102 -8 46 -8 46 24 52 93 18 238 262
176 296 -15 7 -28 2 -62 -24z m-26 -91 c-41 -75 -129 -153 -148 -133 -4 4 162
178 169 178 3 0 -7 -20 -21 -45z"/>
<path d="M2963 2407 c-147 -220 -274 -461 -258 -487 13 -22 49 9 87 74 23 39
84 142 136 229 98 165 106 184 89 205 -16 20 -31 14 -54 -21z"/>
<path d="M2085 2416 c-60 -19 -93 -44 -122 -93 -24 -42 -26 -53 -24 -155 1
-95 -1 -117 -20 -155 -24 -50 -64 -76 -80 -52 -5 8 -8 46 -7 84 2 54 0 70 -11
70 -24 0 -53 -50 -54 -93 -1 -34 4 -46 29 -67 16 -14 31 -25 34 -26 82 -14
143 9 172 65 19 36 21 56 20 160 -1 111 0 123 23 163 26 43 59 73 83 73 20 0
6 -37 -34 -89 -19 -24 -34 -48 -34 -52 0 -10 68 9 96 27 51 34 56 121 8 143
-29 13 -28 13 -79 -3z"/>
<path d="M3017 2312 c-100 -160 -141 -228 -168 -285 -23 -48 -23 -49 -5 -63
11 -8 23 -14 26 -14 4 0 23 24 42 53 35 51 114 135 257 272 l73 70 -37 -60
c-63 -99 -123 -202 -155 -265 l-30 -60 21 -21 c11 -11 26 -19 32 -16 17 5 256
400 263 435 5 22 1 34 -16 50 -20 19 -26 20 -49 8 -14 -8 -75 -63 -135 -122
l-108 -109 57 89 c60 93 65 124 26 146 -17 9 -28 -3 -94 -108z"/>
<path d="M4320 2397 c-58 -12 -99 -41 -117 -85 -12 -29 -12 -36 -1 -43 23 -15
35 -10 62 26 31 40 73 65 110 65 l25 0 -20 -35 c-24 -41 -126 -137 -254 -240
-117 -94 -123 -101 -102 -122 14 -14 22 -15 54 -5 67 20 147 30 241 31 48 1
54 16 19 49 -18 17 -32 20 -79 17 -32 -2 -63 -6 -70 -10 -13 -6 20 23 137 121
75 63 135 141 135 175 0 52 -54 74 -140 56z"/>
<path d="M5128 2396 c-73 -26 -168 -105 -168 -141 0 -7 -2 -20 -6 -28 -3 -8 7
-28 21 -45 21 -25 35 -32 70 -34 l44 -3 -49 -68 c-63 -85 -126 -119 -101 -55
9 25 -2 58 -20 58 -14 0 -37 -59 -31 -82 6 -24 52 -48 92 -48 22 0 41 11 69
39 83 83 215 311 206 357 -2 10 -4 22 -4 26 -1 10 -33 26 -62 31 -14 3 -41 -1
-61 -7z m37 -110 c-28 -66 -55 -90 -112 -99 -28 -5 -33 -2 -33 15 0 29 35 82
73 110 47 36 91 58 95 47 2 -5 -8 -38 -23 -73z"/>
<path d="M4580 2376 c-14 -14 -30 -26 -36 -26 -7 0 -27 -17 -46 -37 -77 -87
-131 -214 -118 -284 4 -22 14 -47 22 -55 19 -19 63 -27 102 -18 84 18 226 256
221 372 -2 54 -12 64 -72 69 -43 5 -52 2 -73 -21z m86 -48 c-8 -55 -106 -258
-143 -296 -74 -77 -100 -57 -63 50 13 37 45 104 72 149 26 44 48 84 48 89 0 9
67 49 84 50 5 0 6 -19 2 -42z"/>
<path d="M4848 2369 c-49 -32 -60 -48 -33 -50 13 -1 24 -3 39 -8 3 0 -21 -45
-53 -98 -67 -113 -121 -224 -121 -247 0 -10 9 -16 24 -16 20 0 38 25 120 168
53 92 106 184 118 205 19 32 20 39 8 51 -30 28 -54 26 -102 -5z"/>
<path d="M2336 6175 c-26 -26 7 -105 44 -105 42 0 50 61 13 103 -20 21 -37 22
-57 2z m47 -37 c15 -31 14 -48 -2 -48 -9 0 -31 45 -31 65 0 25 17 16 33 -17z"/>
<path d="M4615 6170 c-10 -11 -18 -36 -19 -57 -1 -33 2 -38 23 -41 47 -7 80
68 45 102 -20 21 -27 20 -49 -4z m40 -32 c-9 -28 -32 -54 -41 -45 -11 10 17
67 33 67 10 0 12 -6 8 -22z"/>
<path d="M4750 6118 c-21 -9 -23 -11 -7 -17 16 -6 16 -8 -3 -43 -13 -24 -16
-39 -9 -44 13 -8 11 -9 42 53 29 55 23 68 -23 51z"/>
<path d="M2150 6080 c-12 -23 -3 -50 11 -29 5 9 13 2 25 -24 10 -20 24 -37 31
-37 17 0 17 3 -12 60 -28 55 -39 61 -55 30z"/>
<path d="M4841 6044 c-26 -33 -27 -70 -2 -84 24 -12 43 -6 60 21 43 69 -9 125
-58 63z m49 -11 c-1 -22 -23 -53 -39 -53 -15 0 -14 5 4 40 17 33 35 40 35 13z"/>
<path d="M2036 6012 c-15 -28 -15 -32 -1 -32 8 0 15 6 15 13 1 6 10 -5 21 -25
11 -21 26 -38 34 -38 13 0 12 6 -4 38 -11 20 -26 46 -34 56 -14 19 -15 19 -31
-12z"/>
<path d="M4967 5988 c-11 -7 -3 -12 16 -9 12 2 8 -12 -13 -44 -22 -34 -25 -45
-10 -45 13 0 71 90 64 101 -5 9 -40 8 -57 -3z"/>
<path d="M1922 5958 c-16 -16 -15 -44 4 -73 19 -30 40 -38 65 -25 26 15 24 50
-6 83 -28 29 -44 34 -63 15z m53 -48 c20 -38 2 -48 -24 -14 -22 28 -25 37 -15
47 10 10 22 -1 39 -33z"/>
<path d="M5070 5911 c-32 -31 -38 -59 -18 -79 19 -19 45 -14 67 14 27 34 27
70 1 84 -17 9 -25 6 -50 -19z m50 -9 c0 -6 -19 -38 -36 -61 -1 -1 -7 0 -13 4
-15 9 15 65 34 65 8 0 15 -3 15 -8z"/>
<path d="M1822 5888 c-15 -15 -16 -48 -2 -48 6 0 10 5 10 11 0 7 10 -3 23 -21
22 -33 47 -50 47 -33 0 5 -15 30 -33 56 -26 36 -36 44 -45 35z"/>
<path d="M5180 5840 c0 -5 7 -10 16 -10 13 0 11 -7 -11 -36 -16 -21 -24 -39
-18 -45 10 -10 85 80 77 93 -7 12 -64 10 -64 -2z"/>
<path d="M1709 5804 c-13 -7 -23 -15 -22 -18 25 -64 61 -93 93 -76 24 13 25
33 3 70 -20 34 -42 42 -74 24z m56 -43 c20 -39 3 -49 -24 -15 -25 31 -26 44
-6 44 8 0 21 -13 30 -29z"/>
<path d="M5290 5761 c0 -5 6 -11 12 -13 9 -3 3 -16 -15 -37 -15 -18 -24 -37
-21 -43 8 -12 85 72 80 87 -3 13 -56 19 -56 6z"/>
<path d="M1605 5709 c-4 -12 -2 -26 4 -32 8 -8 11 -6 11 6 0 12 10 6 33 -20
45 -48 57 -27 14 25 -36 46 -53 52 -62 21z"/>
<path d="M5394 5688 c-11 -5 -28 -23 -38 -38 -16 -28 -16 -30 4 -50 26 -26 32
-25 64 6 45 46 23 106 -30 82z m36 -26 c0 -16 -32 -52 -46 -52 -18 0 -18 10 2
38 14 21 44 31 44 14z"/>
<path d="M1510 5625 c-7 -20 -8 -31 0 -39 7 -7 10 -4 10 9 0 16 6 13 35 -15
19 -18 38 -31 41 -27 7 7 -24 53 -55 81 -20 18 -21 18 -31 -9z"/>
<path d="M1428 5553 c-39 -9 -31 -66 14 -95 54 -35 94 26 46 69 -30 26 -39 30
-60 26z m42 -45 c23 -25 26 -38 7 -38 -17 0 -59 44 -50 53 11 12 21 8 43 -15z"/>
<path d="M5528 5530 c-14 -11 -28 -29 -31 -40 -6 -22 16 -50 37 -50 18 0 66
46 66 64 0 48 -30 59 -72 26z m42 -35 c-7 -9 -22 -21 -32 -26 -26 -14 -24 15
4 41 26 24 50 11 28 -15z"/>
<path d="M5630 5440 c0 -5 6 -11 13 -13 7 -3 0 -16 -22 -35 -47 -42 -21 -51
29 -10 40 33 51 57 28 59 -7 0 -21 2 -30 4 -10 2 -18 0 -18 -5z"/>
<path d="M1276 5393 c-10 -10 -7 -53 4 -53 6 0 10 5 10 11 0 5 15 -1 33 -15
37 -28 47 -32 47 -15 0 19 -83 83 -94 72z"/>
<path d="M5715 5344 c-40 -19 -54 -43 -44 -72 12 -31 49 -28 82 6 32 33 33 43
9 65 -15 14 -21 14 -47 1z m35 -28 c0 -12 -40 -46 -55 -46 -14 0 -2 31 17 44
28 20 38 20 38 2z"/>
<path d="M1196 5293 c-3 -4 -6 -20 -6 -37 1 -27 2 -29 13 -15 11 15 15 15 40
-7 31 -27 47 -31 47 -11 -1 15 -85 78 -94 70z"/>
<path d="M5772 5225 c-33 -28 -35 -51 -7 -71 38 -28 115 44 85 81 -18 22 -44
19 -78 -10z m63 -4 c5 -10 -40 -51 -56 -51 -17 0 -9 28 14 43 26 19 34 20 42
8z"/>
<path d="M1113 5183 c-34 -13 3 -76 52 -89 21 -5 31 -3 41 10 31 43 -38 102
-93 79z m55 -29 c22 -15 30 -44 13 -44 -13 0 -61 40 -61 51 0 14 23 11 48 -7z"/>
<path d="M5847 5120 c-29 -23 -34 -49 -15 -68 17 -17 36 -15 70 9 22 16 28 28
26 48 -4 35 -44 40 -81 11z m63 -9 c0 -5 -12 -19 -27 -31 -35 -28 -57 -10 -22
19 26 22 49 27 49 12z"/>
<path d="M1046 5078 c-24 -14 -20 -53 9 -72 36 -24 65 -24 81 0 13 19 12 23
-11 46 -30 30 -56 39 -79 26z m55 -37 c13 -11 20 -23 16 -27 -10 -10 -59 16
-65 34 -6 18 23 14 49 -7z"/>
<path d="M5912 5010 c-25 -24 -28 -52 -8 -69 18 -15 79 8 94 35 26 47 -43 74
-86 34z m68 -14 c0 -14 -57 -43 -66 -33 -9 9 6 28 30 37 30 12 36 12 36 -4z"/>
<path d="M972 4958 c-19 -19 -14 -46 13 -64 30 -19 74 -22 85 -4 28 45 -60
106 -98 68z m58 -26 c35 -29 16 -48 -21 -21 -16 11 -27 25 -24 30 9 13 20 11
45 -9z"/>
<path d="M6018 4897 c9 -10 3 -17 -23 -32 -34 -17 -46 -35 -25 -35 20 0 100
45 100 56 0 13 -22 24 -47 24 -12 0 -13 -3 -5 -13z"/>
<path d="M907 4843 c-2 -5 -2 -14 -1 -20 1 -7 2 -17 3 -23 2 -16 21 -12 21 5
0 11 7 10 36 -7 25 -14 38 -18 46 -10 7 7 -5 18 -40 36 -56 29 -59 29 -65 19z"/>
<path d="M6075 4790 c-3 -4 1 -10 7 -13 7 -2 -4 -12 -24 -22 -21 -11 -38 -25
-38 -32 0 -18 3 -17 61 13 28 14 49 30 47 36 -5 15 -46 29 -53 18z"/>
<path d="M850 4700 c0 -16 5 -30 10 -30 6 0 10 7 10 15 0 14 3 14 30 0 32 -16
60 -20 60 -7 0 9 -84 52 -100 52 -6 0 -10 -13 -10 -30z"/>
<path d="M802 4608 c-29 -29 -8 -62 47 -78 23 -6 35 -5 46 6 23 24 18 42 -17
64 -38 23 -59 25 -76 8z m69 -28 c22 -13 25 -30 4 -30 -20 0 -65 22 -65 32 0
11 37 10 61 -2z"/>
<path d="M6114 4585 c-32 -32 -19 -65 27 -65 42 0 84 42 69 70 -15 29 -65 26
-96 -5z m76 -9 c0 -8 -14 -19 -31 -25 -40 -14 -39 -14 -39 3 0 8 12 19 28 24
38 14 42 14 42 -2z"/>
<path d="M6215 4471 c5 -15 0 -21 -25 -26 -27 -6 -50 -29 -39 -39 9 -8 109 38
109 49 0 6 -12 17 -26 24 -23 10 -25 9 -19 -8z"/>
<path d="M724 4388 c3 -13 6 -26 6 -30 0 -16 20 -7 20 8 0 11 5 14 18 9 9 -3
29 -9 45 -12 45 -9 31 14 -20 31 -64 22 -77 21 -69 -6z"/>
<path d="M6211 4349 c-17 -10 -31 -25 -31 -33 0 -19 26 -45 42 -42 52 11 69
20 74 43 12 45 -35 63 -85 32z m69 -19 c0 -11 -42 -30 -66 -30 -22 0 -17 20 9
30 30 12 57 12 57 0z"/>
<path d="M698 4289 c-40 -23 -6 -79 48 -79 34 0 54 16 54 42 0 29 -71 55 -102
37z m80 -34 c3 -3 1 -10 -4 -15 -12 -12 -66 2 -72 20 -4 10 4 12 33 7 21 -3
40 -9 43 -12z"/>
<path d="M6243 4228 c-27 -13 -33 -27 -22 -55 9 -26 42 -30 83 -12 43 20 44
62 3 73 -29 8 -38 7 -64 -6z m61 -38 c-9 -8 -37 -13 -62 -11 -22 2 -3 20 31
29 32 9 48 -1 31 -18z"/>
<path d="M663 4159 c-29 -29 -11 -61 40 -73 52 -12 90 33 53 63 -22 19 -79 24
-93 10z m84 -29 c2 0 3 -4 3 -10 0 -12 -50 -13 -69 -1 -25 16 -3 30 32 20 17
-5 33 -9 34 -9z"/>
<path d="M6315 4100 c-3 -6 -1 -10 6 -10 24 0 -6 -19 -36 -23 -17 -2 -31 -10
-33 -20 -3 -16 -2 -16 80 4 39 10 42 25 8 47 -12 7 -21 8 -25 2z"/>
<path d="M630 4021 c-18 -35 -1 -54 60 -66 26 -5 62 28 53 51 -13 35 -96 46
-113 15z m83 -18 c15 -8 6 -23 -14 -23 -28 0 -61 19 -54 31 6 8 47 3 68 -8z"/>
<path d="M6286 3967 c-28 -21 -17 -61 18 -65 63 -8 97 19 76 59 -13 22 -67 26
-94 6z m73 -16 c12 -8 10 -12 -11 -22 -28 -12 -58 -7 -58 10 0 5 10 12 23 14
12 2 24 5 27 5 3 1 12 -2 19 -7z"/>
<path d="M612 3898 c-30 -30 2 -68 57 -68 55 0 75 28 44 63 -19 20 -83 23
-101 5z m66 -14 c24 -7 31 -34 8 -34 -27 0 -67 20 -61 30 7 11 20 12 53 4z"/>
<path d="M6296 3834 c-19 -18 -19 -20 -6 -45 15 -26 73 -26 100 1 16 16 18 25
10 40 -13 25 -81 28 -104 4z m84 -20 c0 -14 -33 -24 -60 -17 -21 6 -27 19 -10
25 24 8 70 3 70 -8z"/>
<path d="M590 3759 c0 -18 20 -49 31 -49 6 0 9 7 6 15 -5 11 2 14 38 11 34 -3
45 -1 45 10 0 9 -12 14 -37 15 -21 0 -48 2 -60 5 -13 2 -23 -1 -23 -7z"/>
<path d="M6314 3712 c-18 -12 -25 -44 -13 -58 12 -15 76 -19 95 -6 17 11 22
35 12 55 -9 18 -72 24 -94 9z m76 -28 c0 -13 -46 -25 -67 -17 -9 4 -10 9 -4
17 13 16 71 16 71 0z"/>
<path d="M589 3630 c-8 -5 -6 -16 7 -36 18 -27 19 -27 22 -6 3 18 9 21 39 19
22 -1 38 3 40 11 3 7 -6 12 -24 13 -15 0 -38 2 -50 3 -12 1 -27 -1 -34 -4z"/>
<path d="M592 3508 c-17 -17 -15 -55 4 -62 29 -11 81 -6 94 9 7 8 10 25 6 40
-6 22 -12 25 -49 25 -24 0 -48 -5 -55 -12z m86 -26 c4 -12 -3 -14 -33 -14 -34
0 -45 2 -45 11 0 21 71 23 78 3z"/>
<path d="M6328 3512 c-10 -2 -21 -15 -24 -29 -8 -31 15 -53 56 -53 41 0 64 22
56 53 -4 16 -14 27 -24 28 -9 0 -24 2 -32 3 -8 1 -23 1 -32 -2z m70 -39 c2 -9
-9 -13 -37 -13 -39 0 -50 8 -34 24 11 11 66 2 71 -11z"/>
<path d="M6383 3365 c3 -17 -1 -20 -37 -20 -63 0 -49 -19 17 -23 31 -2 57 0
57 5 0 4 -10 19 -21 33 -18 22 -20 22 -16 5z"/>
<path d="M623 3312 c-45 -7 -38 -82 7 -82 34 0 80 22 80 38 0 37 -33 53 -87
44z m60 -37 c1 -5 -15 -11 -35 -13 -36 -3 -52 10 -25 22 19 8 57 2 60 -9z"/>
<path d="M6368 3244 c-4 -3 -4 -12 -2 -19 4 -10 -2 -11 -30 -5 -26 6 -39 4
-47 -6 -6 -8 -10 -14 -8 -14 79 -9 118 -10 122 -3 7 11 -27 56 -35 47z"/>
<path d="M634 3180 c-29 -11 -37 -26 -29 -50 14 -45 115 -31 115 16 0 37 -41
53 -86 34z m64 -32 c-5 -15 -78 -24 -78 -9 0 12 18 19 53 20 19 1 27 -3 25
-11z"/>
<path d="M6288 3119 c-22 -12 -23 -42 -4 -58 20 -16 78 -22 93 -9 17 14 16 43
-1 58 -21 16 -68 22 -88 9z m66 -25 c29 -11 16 -25 -21 -22 -42 3 -59 28 -20
28 14 0 32 -3 41 -6z"/>
<path d="M650 3047 c-35 -17 -34 -58 1 -71 31 -11 82 11 87 37 8 41 -38 59
-88 34z m60 -37 c-8 -5 -28 -10 -43 -10 -37 0 -31 23 9 31 34 7 56 -7 34 -21z"/>
<path d="M6262 2988 c-30 -30 -4 -68 50 -73 38 -3 58 9 58 36 0 38 -80 65
-108 37z m86 -36 c2 -8 -7 -12 -25 -12 -33 0 -58 14 -49 28 8 13 68 0 74 -16z"/>
<path d="M695 2908 c-16 -5 -36 -12 -44 -14 -11 -4 -10 -8 4 -24 21 -24 55
-29 36 -6 -10 12 -6 16 21 22 18 4 36 7 41 6 4 -1 7 5 7 13 0 17 -21 18 -65 3z"/>
<path d="M6248 2873 c-20 -5 -31 -33 -22 -57 8 -20 62 -35 89 -26 30 11 32 53
3 67 -33 16 -51 20 -70 16z m53 -33 c25 -14 24 -30 -2 -30 -28 0 -61 19 -54
31 8 12 32 12 56 -1z"/>
<path d="M712 2799 c-28 -11 -43 -40 -31 -62 14 -24 74 -22 99 3 25 25 25 33
3 52 -20 17 -39 19 -71 7z m62 -28 c3 -5 -8 -14 -26 -20 -41 -14 -48 -14 -48
3 0 21 63 35 74 17z"/>
<path d="M6202 2738 c-30 -30 6 -78 59 -78 57 0 63 60 7 79 -40 14 -51 14 -66
-1z m76 -43 c-2 -5 -10 -10 -19 -10 -23 -2 -52 21 -45 34 9 13 69 -9 64 -24z"/>
<path d="M731 2661 c-25 -25 -25 -31 -8 -55 10 -14 21 -16 50 -11 43 8 60 25
55 57 -4 33 -68 38 -97 9z m79 -15 c0 -16 -21 -26 -56 -26 -29 0 -23 17 10 30
31 13 46 12 46 -4z"/>
<path d="M6232 2594 c-9 -16 -14 -16 -37 -6 -33 15 -45 15 -45 -1 0 -14 101
-48 113 -37 4 3 1 19 -7 34 -13 25 -15 26 -24 10z"/>
<path d="M830 2543 c-8 -3 -31 -12 -50 -20 l-35 -14 24 -20 c12 -10 28 -16 33
-13 7 4 6 9 -1 13 -11 7 11 22 52 35 9 3 17 10 17 16 0 11 -15 12 -40 3z"/>
<path d="M843 2430 c-35 -14 -48 -48 -28 -70 19 -20 45 -19 81 5 24 16 29 31
18 59 -7 17 -36 20 -71 6z m57 -29 c0 -15 -60 -35 -71 -24 -7 7 1 15 23 26 31
15 48 14 48 -2z"/>
<path d="M6104 2429 c-33 -12 -37 -37 -9 -65 43 -43 111 -25 98 26 -6 24 -63
49 -89 39z m41 -31 c14 -6 25 -17 25 -25 0 -16 1 -16 -39 -2 -17 6 -31 17 -31
25 0 17 11 18 45 2z"/>
<path d="M6020 2282 c0 -4 25 -20 55 -35 l55 -27 0 30 c0 16 -4 32 -10 35 -5
3 -10 -1 -10 -10 0 -14 -3 -14 -30 0 -31 16 -60 20 -60 7z"/>
<path d="M938 2224 c-54 -28 -59 -40 -22 -54 34 -13 39 -13 24 5 -10 12 -6 17
24 32 20 9 36 23 36 30 0 18 -7 16 -62 -13z"/>
<path d="M5965 2170 c-7 -11 91 -63 104 -56 11 7 2 56 -10 56 -5 0 -9 -7 -9
-15 0 -12 -6 -11 -32 5 -37 23 -44 24 -53 10z"/>
<path d="M1002 2109 c-42 -24 -51 -33 -42 -44 12 -14 50 -27 50 -16 0 4 -4 11
-10 17 -6 6 2 16 25 28 19 11 35 25 35 33 0 17 4 18 -58 -18z"/>
<path d="M5912 2078 c-19 -19 -14 -45 14 -67 42 -33 94 -23 88 17 -1 6 -2 16
-3 20 -1 11 -56 42 -73 42 -8 0 -19 -5 -26 -12z m78 -53 c0 -8 -4 -15 -9 -15
-16 0 -61 41 -56 51 9 13 65 -19 65 -36z"/>
<path d="M1063 2020 c-28 -11 -46 -45 -38 -72 12 -36 91 -12 107 32 14 39 -22
59 -69 40z m47 -25 c0 -21 -48 -51 -61 -38 -7 7 -2 17 17 32 31 25 44 27 44 6z"/>
<path d="M5840 1965 c-19 -22 0 -58 41 -78 32 -15 35 -15 53 3 17 17 18 22 7
44 -22 41 -78 58 -101 31z m82 -50 c-1 -18 -18 -16 -45 6 -15 11 -25 25 -21
30 7 12 67 -21 66 -36z"/>
<path d="M1132 1910 c-31 -13 -49 -54 -32 -75 16 -19 35 -19 71 2 34 20 42 38
29 64 -11 20 -32 23 -68 9z m53 -19 c7 -13 -52 -54 -65 -46 -18 11 13 40 57
54 1 1 4 -3 8 -8z"/>
<path d="M5771 1861 c-20 -13 -6 -55 25 -76 60 -39 104 20 48 64 -29 22 -51
26 -73 12z m54 -27 c24 -16 34 -44 16 -44 -4 0 -20 9 -35 21 -44 35 -29 54 19
23z"/>
<path d="M1215 1808 c-43 -25 -57 -65 -30 -88 41 -34 121 50 83 88 -15 15 -27
15 -53 0z m20 -53 c-20 -17 -33 -21 -40 -14 -7 7 -1 18 20 34 20 17 33 21 40
14 7 -7 1 -18 -20 -34z"/>
<path d="M5685 1750 c-11 -17 75 -87 94 -76 5 3 8 14 6 24 -2 9 -4 20 -4 25
-1 4 -6 7 -12 7 -5 0 -7 -4 -4 -10 3 -5 -1 -10 -9 -10 -8 0 -19 6 -23 13 -16
24 -41 39 -48 27z"/>
<path d="M1287 1700 c-45 -36 -44 -90 3 -90 48 0 88 68 58 98 -17 17 -31 15
-61 -8z m33 -45 c-16 -15 -30 -21 -38 -16 -9 6 -6 14 14 35 19 18 31 23 38 16
7 -7 3 -18 -14 -35z"/>
<path d="M5605 1649 c-9 -13 61 -79 82 -79 8 0 13 13 13 30 0 31 -20 43 -20
13 -1 -16 -2 -16 -13 -3 -29 35 -55 51 -62 39z"/>
<path d="M1379 1582 c-45 -42 -45 -62 -1 -62 20 0 23 3 14 12 -9 9 -5 19 19
44 46 47 17 53 -32 6z"/>
<path d="M1459 1502 c-26 -23 -31 -33 -25 -55 9 -36 44 -36 80 -1 30 31 32 46
10 68 -21 22 -29 20 -65 -12z m52 -20 c-16 -29 -41 -46 -51 -36 -14 14 17 54
41 54 16 0 18 -3 10 -18z"/>
<path d="M5464 1502 c-14 -22 0 -54 34 -78 22 -15 61 -11 63 7 1 5 2 15 3 22
3 19 -45 67 -68 67 -12 0 -26 -8 -32 -18z m56 -22 c27 -27 27 -55 0 -40 -18 9
-40 40 -40 54 0 13 21 5 40 -14z"/>
<path d="M5366 1412 c-6 -10 73 -94 83 -87 16 9 19 55 5 55 -8 0 -14 -5 -14
-11 0 -6 -12 3 -26 20 -26 31 -39 37 -48 23z"/>
<path d="M1608 1360 c-33 -34 -34 -56 -1 -77 20 -14 24 -12 52 16 35 36 40 66
12 81 -27 14 -29 14 -63 -20z m56 -13 c-15 -26 -38 -47 -51 -47 -11 0 -11 4
-2 23 15 26 41 47 52 40 4 -2 4 -10 1 -16z"/>
<path d="M5276 1332 c-7 -12 50 -92 66 -92 11 0 27 42 21 53 -3 5 -10 4 -17
-3 -8 -8 -18 -3 -37 21 -17 21 -28 28 -33 21z"/>
<path d="M1718 1260 c-39 -50 -37 -60 13 -60 23 0 26 17 3 22 -13 3 -13 6 3
23 40 45 44 52 31 57 -7 3 -30 -16 -50 -42z"/>
<path d="M5176 1255 c-21 -21 -4 -66 33 -88 27 -16 31 -16 45 -1 22 22 20 38
-10 73 -29 34 -45 38 -68 16z m59 -46 c14 -26 14 -29 0 -29 -18 0 -49 45 -40
60 9 14 22 4 40 -31z"/>
<path d="M1825 1187 c-37 -52 -37 -59 -2 -64 20 -3 27 1 27 12 0 9 -4 13 -10
10 -17 -11 -11 5 15 39 22 29 24 46 6 46 -3 0 -19 -19 -36 -43z"/>
<path d="M5067 1183 c-7 -12 49 -98 64 -98 15 0 31 43 19 50 -6 4 -10 0 -10
-7 -1 -7 -16 4 -34 26 -18 21 -36 34 -39 29z"/>
<path d="M1950 1152 c-42 -13 -68 -93 -34 -106 28 -11 51 3 68 38 23 48 6 81
-34 68z m5 -68 c-9 -13 -20 -22 -25 -19 -15 9 -12 19 12 51 19 24 23 25 26 11
2 -10 -4 -29 -13 -43z"/>
<path d="M4964 1109 c-18 -20 -18 -22 1 -57 16 -30 26 -37 50 -37 21 0 31 5
33 18 6 29 -17 73 -43 85 -19 9 -26 7 -41 -9z m54 -42 c8 -16 11 -31 8 -34 -9
-9 -43 25 -49 48 -8 31 25 19 41 -14z"/>
<path d="M2041 1043 c-16 -26 -27 -51 -25 -55 10 -15 54 -9 54 8 0 8 -4 12
-10 9 -15 -9 -12 0 10 39 33 54 5 54 -29 -1z"/>
<path d="M4850 1035 c0 -19 47 -95 59 -95 5 0 14 14 20 30 6 18 6 30 0 30 -5
0 -9 -4 -9 -10 0 -21 -16 -9 -34 25 -20 37 -36 46 -36 20z"/>
<path d="M2153 1008 c-28 -31 -35 -56 -23 -79 15 -27 45 -24 69 7 26 33 27 70
2 84 -26 13 -24 14 -48 -12z m31 -50 c-8 -15 -19 -28 -24 -28 -15 0 -12 33 6
59 23 32 38 7 18 -31z"/>
<path d="M4730 985 c0 -15 52 -105 60 -105 13 0 30 41 23 54 -3 4 -9 2 -14 -5
-5 -9 -13 -2 -25 24 -10 20 -24 37 -31 37 -7 0 -13 -2 -13 -5z"/>
<path d="M2268 916 c-29 -58 -23 -72 22 -53 20 8 22 11 8 14 -16 4 -16 7 -3
33 16 32 20 60 7 60 -4 0 -20 -24 -34 -54z"/>
<path d="M2379 887 c-10 -18 -19 -39 -19 -47 1 -49 54 -52 82 -5 14 25 15 35
5 54 -18 36 -45 35 -68 -2z m51 -7 c0 -15 -22 -60 -30 -60 -15 0 -18 13 -8 41
9 27 38 41 38 19z"/>
<path d="M4545 899 c-12 -19 5 -78 27 -94 19 -13 25 -13 43 -1 22 15 22 47 -1
84 -15 23 -58 30 -69 11z m53 -34 c16 -34 15 -45 -2 -45 -15 0 -39 54 -29 64
12 11 20 6 31 -19z"/>
<path d="M4431 848 c0 -7 8 -35 18 -62 l17 -49 22 23 c27 29 28 43 4 35 -15
-4 -21 2 -28 27 -9 31 -35 52 -33 26z"/>
<path d="M2581 829 c-20 -22 -26 -45 -21 -79 2 -18 0 -16 27 -24 18 -6 26 -1
41 24 24 39 23 69 -5 87 -19 13 -23 12 -42 -8z m35 -41 c-8 -41 -23 -57 -32
-34 -8 21 11 66 27 66 8 0 9 -11 5 -32z"/>
<path d="M4310 806 c0 -7 5 -28 11 -47 6 -19 13 -40 15 -48 4 -11 8 -10 24 4
23 21 29 55 7 36 -11 -9 -16 -3 -26 29 -11 38 -31 55 -31 26z"/>
<path d="M2713 802 c-18 -11 -35 -63 -29 -88 6 -22 36 -37 53 -25 35 22 43 95
14 111 -23 12 -23 12 -38 2z m25 -63 c-10 -28 -22 -37 -32 -21 -2 4 2 23 10
42 11 26 17 31 23 21 5 -8 5 -26 -1 -42z"/>
<path d="M4187 783 c-5 -9 17 -100 26 -110 9 -8 48 27 41 38 -2 4 -11 6 -18 3
-10 -4 -16 7 -21 35 -6 38 -18 51 -28 34z"/>
<path d="M2841 757 c-5 -14 -13 -41 -16 -61 -6 -29 -4 -36 8 -36 24 0 47 11
47 22 0 6 -7 8 -15 4 -16 -6 -16 15 0 63 9 29 -14 36 -24 8z"/>
<path d="M4051 738 c-15 -40 12 -98 44 -98 27 0 39 21 36 67 -2 49 -64 72 -80
31z m51 -22 c12 -28 3 -65 -12 -50 -5 5 -13 24 -16 42 -8 39 11 44 28 8z"/>
<path d="M2956 731 c-18 -20 -24 -69 -12 -90 12 -18 54 -13 66 8 14 26 13 74
-2 89 -17 17 -32 15 -52 -7z m37 -53 c-3 -16 -9 -28 -14 -28 -17 0 -22 31 -9
58 9 21 13 24 20 12 4 -8 6 -27 3 -42z"/>
<path d="M3932 728 c-15 -15 -16 -63 -2 -89 19 -35 78 -19 74 21 -1 8 -2 23
-3 32 -1 20 -27 48 -45 48 -6 0 -17 -5 -24 -12z m48 -65 c0 -36 -27 -28 -33
10 -2 17 -2 36 1 41 8 14 32 -25 32 -51z"/>
<path d="M3075 695 c-26 -61 14 -116 55 -75 22 22 27 79 8 98 -23 23 -48 13
-63 -23z m49 -18 c-1 -12 -3 -28 -3 -34 -1 -7 -8 -13 -16 -13 -15 0 -20 34 -9
64 8 22 31 9 28 -17z"/>
<path d="M3806 698 c11 -78 16 -98 25 -98 17 0 41 29 33 41 -4 8 -9 7 -15 -2
-7 -11 -9 -10 -10 4 -1 9 -3 22 -4 27 -1 6 -3 19 -4 30 0 11 -7 20 -15 20 -8
0 -12 -9 -10 -22z"/>
<path d="M3202 683 c-21 -63 12 -112 56 -84 17 11 24 81 10 98 -19 23 -55 15
-66 -14z m50 -11 c6 -22 -8 -62 -22 -62 -5 0 -10 11 -10 24 0 49 23 75 32 38z"/>
<path d="M3349 698 c-5 -62 -4 -110 1 -113 11 -7 51 26 44 36 -3 5 -10 7 -15
4 -5 -4 -9 12 -9 34 0 36 -19 71 -21 39z"/>
<path d="M3681 662 c1 -26 6 -55 11 -65 9 -18 11 -18 29 -1 23 20 25 38 4 30
-14 -5 -19 13 -18 61 0 6 -6 14 -14 17 -12 5 -14 -3 -12 -42z"/>
<path d="M3467 686 c-15 -15 -16 -46 -3 -83 8 -24 49 -32 61 -13 13 20 15 59
5 84 -11 29 -40 34 -63 12z m43 -47 c0 -28 -4 -39 -12 -37 -24 8 -22 78 2 78
5 0 10 -18 10 -41z"/>
</g>
</svg>
